<svg width="30" height="30" viewBox="0 0 30 30" fill="none" xmlns="http://www.w3.org/2000/svg">
<path d="M26.4844 14.6717C26.4844 14.4373 26.5312 14.2498 26.625 14.0623C25.7344 13.5467 25.2187 12.7967 25.2187 11.953C25.2656 10.6405 26.7656 9.56234 28.6875 9.37484C29.1562 4.96859 29.0625 1.40609 29.0625 1.40609C29.0625 1.40609 11.6719 0.796712 5.34375 6.89046L5.01562 7.21859C5.95312 7.78109 6.5625 8.71859 6.5625 9.79671C6.5625 11.5311 4.92187 12.9842 2.90625 12.9842C2.29687 12.9842 1.73437 12.8436 1.21875 12.6092C-0.609378 18.0936 6.84375 19.6873 8.48437 21.2811C10.5937 23.2967 12.7031 34.5936 23.3437 24.328C25.2656 22.453 26.5781 19.5467 27.4219 16.453C26.8594 15.9842 26.4844 15.3748 26.4844 14.6717Z" fill="#FFD93B"/>
<path d="M11.4844 19.1719L13.6406 17.0156L22.5469 22.5L13.9687 16.6406L17.5313 13.0781L25.5 16.5938L17.8594 12.7031L21.1875 9.32812L27.2344 9.04687L21.6562 8.85938L29.0625 1.40625L21.3281 8.53125L21.1406 3.14062L20.8594 9L17.3906 12.2344L13.3594 4.82812L17.0156 12.5625L13.2656 15.9844L7.21875 7.73438L12.9375 16.3125L10.6875 18.375L4.64062 14.8125L10.3594 18.7031L4.5 24.0938L5.57812 25.125L11.1562 19.5L15.1875 24.9844L11.4844 19.1719Z" fill="#DB9523"/>
</svg>
