<svg width="28" height="25" viewBox="0 0 28 25" fill="none" xmlns="http://www.w3.org/2000/svg">
<path d="M26.9907 15.4114C26.3515 15.2853 25.3206 15.0459 25.4349 14.8324C25.4349 14.8324 25.9412 11.907 26.1112 10.9215C26.1385 10.7635 25.9999 10.6313 25.8421 10.6592L21.9539 11.3475C21.7625 11.4505 21.5587 10.495 21.4493 9.88303C21.4125 9.67724 21.1621 9.59855 21.0141 9.74615C20.4282 10.3305 19.59 11.168 18.7167 12.0564C18.7809 8.62244 18.8085 4.99947 18.8171 3.65269C18.8186 3.42306 18.5636 3.28824 18.3729 3.41615C17.7766 3.81599 16.7867 4.43281 16.7093 4.17734C16.7093 4.17734 14.8243 1.50324 14.1889 0.60283C14.087 0.458513 13.876 0.463435 13.7747 0.608162L11.2812 4.17424C11.2124 4.40375 10.309 3.81804 9.74681 3.42629C9.55779 3.29457 9.30132 3.4284 9.30103 3.65879C9.29921 5.01769 9.29892 8.66685 9.33853 12.1122C8.44556 11.2031 7.58441 10.3427 6.98617 9.74609C6.83816 9.59844 6.58767 9.67713 6.55093 9.88297C6.44154 10.495 6.23775 11.4505 6.04632 11.3474L2.15816 10.6592C2.00031 10.6312 1.86179 10.7635 1.88904 10.9214C2.05902 11.9069 2.56538 14.8323 2.56538 14.8323C2.6797 15.0459 1.64874 15.2853 1.00954 15.4113C0.805111 15.4517 0.728002 15.7017 0.876302 15.8482C2.62843 17.5779 6.70773 21.536 7.57251 21.9966C8.349 22.4102 9.27876 22.4407 10.1339 22.3194L8.65626 23.7969C8.33757 24.1156 8.65345 24.6491 9.08611 24.5231L13.9374 23.1094C14.0166 23.0864 14.1007 23.0862 14.1799 23.1091L18.6139 24.5322C19.0619 24.6612 19.3722 24.0912 19.0205 23.7851L17.9348 22.3289C18.7708 22.4388 19.6718 22.3993 20.4276 21.9967C21.2924 21.5361 25.3717 17.578 27.1238 15.8482C27.2723 15.7018 27.1952 15.4517 26.9907 15.4114Z" fill="#F4580B"/>
</svg>
