<svg width="22" height="28" viewBox="0 0 22 28" fill="none" xmlns="http://www.w3.org/2000/svg">
<path d="M15.3715 26.9759C15.5651 27.0753 15.7902 27.0936 15.9973 27.027C16.0999 26.994 16.1949 26.9411 16.277 26.8714C16.3592 26.8017 16.4267 26.7165 16.4759 26.6206C16.5251 26.5248 16.5549 26.4202 16.5637 26.3128C16.5724 26.2054 16.56 26.0974 16.527 25.9949C16.494 25.8923 16.4411 25.7973 16.3714 25.7151C16.3017 25.633 16.2164 25.5654 16.1206 25.5163L15.3715 26.9759ZM16.1206 25.5163C13.5819 24.2131 12.5478 22.4853 12.1109 20.5766C11.6515 18.5675 11.8494 16.4141 11.8494 14.1172H10.2087C10.2087 16.2031 9.99685 18.6931 10.5115 20.9422C11.0487 23.2916 12.3734 25.4375 15.3715 26.9759L16.1206 25.5163Z" fill="#008463"/>
<path d="M11.0235 7.65987C10.9344 5.33393 10.5425 2.90956 9.02284 1.63643C6.91066 -0.131694 3.70534 1.76862 4.15909 4.37581C1.21534 4.06831 -0.769344 8.04143 2.19597 9.91362C3.60597 10.8024 5.04972 11.0817 6.74284 11.1577C5.03003 11.2533 3.57316 11.5552 2.14909 12.4533C-0.815282 14.3246 1.16847 18.2977 4.11316 17.9902C3.65847 20.5974 6.77847 22.3899 8.97597 20.7296C10.3325 19.7039 10.8228 17.9367 10.9803 16.0749C11.1566 17.9367 11.6675 19.7039 13.0241 20.7296C15.2216 22.3899 18.3407 20.5983 17.8869 17.9902C20.8307 18.2977 22.8153 14.3246 19.85 12.4533C18.4382 11.5627 16.9682 11.258 15.2516 11.1596C16.9672 11.0874 18.425 10.8127 19.85 9.91268C22.8153 8.04237 20.8316 4.06831 17.8869 4.37581C18.3407 1.76956 15.1353 -0.131694 13.0241 1.63643C11.5044 2.90956 11.1116 5.33393 11.0235 7.65987Z" fill="#00D26A"/>
</svg>
