<svg xmlns="http://www.w3.org/2000/svg" id="Layer_2" width="120" height="105" viewBox="0 0 479.44 401.49" class="mdl-js">
	<defs>
		<style>
			.cls-1{
			fill:#FFCF10;
			}
			.cls-2{
			fill:#afafaf;
			}
			.cls-3{
			fill:#86D3FF;

			}
			.gear-wrap-big{
				-webkit-animation: rotate 2.5s linear infinite;
				animation: rotate 2.5s linear infinite;
				 transform-origin: 140px 125px;
				-webkit-transform-origin: 140px 125px;
			}
			.gear-wrap-small{
				-webkit-animation: rotate 2.5s linear infinite;
				animation: rotate 2.5s linear infinite;
				 transform-origin: 420px 190px;
				-webkit-transform-origin: 420px 190px;
			}
			.gear-wrap-mid{
				-webkit-animation: reverseRotate 2.5s linear infinite;
				animation: reverseRotate 2.5s linear infinite;
				 transform-origin: 305px 305px;
				-webkit-transform-origin: 305px 305px;
			}
			@keyframes rotate {
			  0% {
				-webkit-transform: rotate(0deg);
				transform: rotate(0deg);
			  }
			  100% {
				-webkit-transform: rotate(360deg);
				transform: rotate(360deg);
			  }
			}

			@keyframes reverseRotate {
			  0% {
				-webkit-transform: rotate(360deg);
				transform: rotate(360deg);
			  }
			  100% {
				-webkit-transform: rotate(0deg);
				transform: rotate(0deg);
			  }
			}
		</style>
	</defs>
	<g class="gear-wrap">
		<g class="gear-wrap-big">
		<path class="cls-3" d="M250.42,89.31h-5.25c-1.75,0-3.5-1.75-3.5-1.75l-14.01-24.52v-8.76c7-14.01,1.75-31.52-12.26-40.28l-15.76-10.51C185.62-3.5,168.11,0,159.36,14.01l-1.75,3.5c0,1.75-3.5,1.75-3.5,1.75h-28.02c-1.75,0-3.5,0-3.5-1.75l-1.75-3.5C112.07,0,94.56-3.5,80.55,3.5l-17.51,10.51c-14.01,7-19.26,26.27-10.51,40.28h0l1.75,3.5v3.5l-14.01,24.52c0,1.75-1.75,3.5-3.5,3.5h-8.76c-15.76,0-28.02,14.01-28.02,29.77v19.26c0,15.76,12.26,29.77,28.02,29.77h7c1.75,0,3.5,1.75,3.5,1.75l14.01,24.52v5.25l-3.5,5.25c-7,14.01-1.75,31.52,12.26,40.28l17.51,10.51c14.01,8.76,31.52,3.5,40.28-10.51h0l1.75-3.5c0-1.75,3.5-1.75,3.5-1.75h28.02c1.75,0,3.5,1.75,3.5,1.75l1.75,3.5c8.76,14.01,26.27,17.51,40.28,10.51l17.51-10.51c14.01-8.76,17.51-26.27,12.26-40.28v-8.76l12.26-22.77c0-1.75,1.75-3.5,3.5-3.5h8.76c15.76,0,28.02-14.01,28.02-29.77h0v-21.01c0-15.76-12.26-29.77-29.77-29.77h0Zm10.51,50.78c0,5.25-3.5,10.51-8.76,10.51h-10.51c-8.76,1.75-15.76,5.25-22.77,12.26l-14.01,24.52c-3.5,7-3.5,15.76,0,24.52l1.75,3.5c1.75,5.25,0,10.51-3.5,14.01l-17.51,10.51c-3.5,1.75-10.51,1.75-12.26-1.75l-1.75-5.25c-3.5-10.51-12.26-15.76-21.01-15.76h-24.52c-8.76,1.75-15.76,5.25-22.77,12.26l-1.75,3.5c-1.75,3.5-7,5.25-12.26,3.5l-17.51-8.76c-5.25-3.5-5.25-8.76-3.5-14.01l3.5-5.25c3.5-7,3.5-15.76,0-24.52l-14.01-22.77c-5.25-7-12.26-10.51-21.01-10.51h-7c-5.25,0-10.51-5.25-10.51-10.51v-21.01c0-5.25,3.5-10.51,8.76-10.51h10.51c8.76-1.75,15.76-5.25,22.77-12.26l14.01-24.52c3.5-8.76,3.5-17.51,0-26.27l-7-1.75c-1.75-5.25,0-10.51,3.5-14.01l17.51-10.51c3.5-1.75,8.76,0,12.26,3.5l1.75,3.5c5.25,7,14.01,12.26,22.77,12.26h28.02c8.76,0,17.51-5.25,22.77-12.26l1.75-3.5c1.75-3.5,7-5.25,12.26-3.5l17.51,10.51c5.25,3.5,5.25,8.76,3.5,14.01l-3.5,5.25c-3.5,7-3.5,15.76,0,24.52l14.01,24.52c5.25,7,14.01,12.26,22.77,12.26h5.25c5.25,0,10.51,3.5,10.51,8.76v21.01Zm-94.56-54.29c-12.26-7-24.52-8.76-38.53-3.5-12.26,3.5-24.52,12.26-31.52,22.77-7,12.26-7,26.27-3.5,38.53,3.5,12.26,12.26,22.77,24.52,29.77,7,3.5,15.76,7,24.52,5.25,17.51,0,35.02-8.76,43.78-24.52,12.26-22.77,3.5-54.29-19.26-68.3Zm0,59.54h0c-8.76,14.01-28.02,19.26-42.03,10.51-5.25-3.5-10.51-10.51-12.26-17.51-3.5-8.76-1.75-15.76,1.75-22.77,3.5-7,10.51-12.26,17.51-14.01h8.76c5.25,0,10.51,1.75,14.01,3.5,14.01,7,21.01,22.77,14.01,36.77,0,1.75-1.75,1.75-1.75,3.5Z"/>
		</g>
		<g class="gear-wrap-small">
		<path class="cls-2" d="M466.72,172.1h-2.25c-.75,0-1.5-.75-1.5-.75l-5.99-10.48v-3.74c2.99-5.99,.75-13.47-5.24-17.21l-6.74-4.49c-5.99-2.99-13.47-1.5-17.21,4.49l-.75,1.5c0,.75-1.5,.75-1.5,.75h-11.98c-.75,0-1.5,0-1.5-.75l-.75-1.5c-3.74-5.99-11.23-7.48-17.21-4.49l-7.48,4.49c-5.99,2.99-8.23,11.23-4.49,17.21h0l.75,1.5v1.5l-5.99,10.48c0,.75-.75,1.5-1.5,1.5h-3.74c-6.74,0-11.98,5.99-11.98,12.72v8.23c0,6.74,5.24,12.72,11.98,12.72h2.99c.75,0,1.5,.75,1.5,.75l5.99,10.48v2.25l-1.5,2.25c-2.99,5.99-.75,13.47,5.24,17.21l7.48,4.49c5.99,3.74,13.47,1.5,17.21-4.49h0l.75-1.5c0-.75,1.5-.75,1.5-.75h11.98c.75,0,1.5,.75,1.5,.75l.75,1.5c3.74,5.99,11.23,7.48,17.21,4.49l7.48-4.49c5.99-3.74,7.48-11.23,5.24-17.21v-3.74l5.24-9.73c0-.75,.75-1.5,1.5-1.5h3.74c6.74,0,11.98-5.99,11.98-12.72h0v-8.98c0-6.74-5.24-12.72-12.72-12.72h0Zm4.49,21.7c0,2.25-1.5,4.49-3.74,4.49h-4.49c-3.74,.75-6.74,2.25-9.73,5.24l-5.99,10.48c-1.5,2.99-1.5,6.74,0,10.48l.75,1.5c.75,2.25,0,4.49-1.5,5.99l-7.48,4.49c-1.5,.75-4.49,.75-5.24-.75l-.75-2.25c-1.5-4.49-5.24-6.74-8.98-6.74h-10.48c-3.74,.75-6.74,2.25-9.73,5.24l-.75,1.5c-.75,1.5-2.99,2.25-5.24,1.5l-7.48-3.74c-2.25-1.5-2.25-3.74-1.5-5.99l1.5-2.25c1.5-2.99,1.5-6.74,0-10.48l-5.99-9.73c-2.25-2.99-5.24-4.49-8.98-4.49h-2.99c-2.25,0-4.49-2.25-4.49-4.49v-8.98c0-2.25,1.5-4.49,3.74-4.49h4.49c3.74-.75,6.74-2.25,9.73-5.24l5.99-10.48c1.5-3.74,1.5-7.48,0-11.23l-2.99-.75c-.75-2.25,0-4.49,1.5-5.99l7.48-4.49c1.5-.75,3.74,0,5.24,1.5l.75,1.5c2.25,2.99,5.99,5.24,9.73,5.24h11.98c3.74,0,7.48-2.25,9.73-5.24l.75-1.5c.75-1.5,2.99-2.25,5.24-1.5l7.48,4.49c2.25,1.5,2.25,3.74,1.5,5.99l-1.5,2.25c-1.5,2.99-1.5,6.74,0,10.48l5.99,10.48c2.25,2.99,5.99,5.24,9.73,5.24h2.25c2.25,0,4.49,1.5,4.49,3.74v8.98Zm-40.42-23.2c-5.24-2.99-10.48-3.74-16.47-1.5-5.24,1.5-10.48,5.24-13.47,9.73-2.99,5.24-2.99,11.23-1.5,16.47,1.5,5.24,5.24,9.73,10.48,12.72,2.99,1.5,6.74,2.99,10.48,2.25,7.48,0,14.97-3.74,18.71-10.48,5.24-9.73,1.5-23.2-8.23-29.19Zm0,25.45h0c-3.74,5.99-11.98,8.23-17.96,4.49-2.25-1.5-4.49-4.49-5.24-7.48-1.5-3.74-.75-6.74,.75-9.73s4.49-5.24,7.48-5.99h3.74c2.25,0,4.49,.75,5.99,1.5,5.99,2.99,8.98,9.73,5.99,15.72,0,.75-.75,.75-.75,1.5Z"/>
		</g>
		<g class="gear-wrap-mid">
		<path class="cls-1" d="M385.75,274.97h-3.9c-1.3,0-2.6-1.3-2.6-1.3l-10.39-18.18v-6.49c5.19-10.39,1.3-23.37-9.09-29.86l-11.69-7.79c-10.39-5.19-23.37-2.6-29.86,7.79l-1.3,2.6c0,1.3-2.6,1.3-2.6,1.3h-20.77c-1.3,0-2.6,0-2.6-1.3l-1.3-2.6c-6.49-10.39-19.48-12.98-29.86-7.79l-12.98,7.79c-10.39,5.19-14.28,19.48-7.79,29.86h0l1.3,2.6v2.6l-10.39,18.18c0,1.3-1.3,2.6-2.6,2.6h-6.49c-11.69,0-20.77,10.39-20.77,22.07v14.28c0,11.69,9.09,22.07,20.77,22.07h5.19c1.3,0,2.6,1.3,2.6,1.3l10.39,18.18v3.9l-2.6,3.9c-5.19,10.39-1.3,23.37,9.09,29.86l12.98,7.79c10.39,6.49,23.37,2.6,29.86-7.79h0l1.3-2.6c0-1.3,2.6-1.3,2.6-1.3h20.77c1.3,0,2.6,1.3,2.6,1.3l1.3,2.6c6.49,10.39,19.48,12.98,29.86,7.79l12.98-7.79c10.39-6.49,12.98-19.48,9.09-29.86v-6.49l9.09-16.88c0-1.3,1.3-2.6,2.6-2.6h6.49c11.69,0,20.77-10.39,20.77-22.07h0v-15.58c0-11.69-9.09-22.07-22.07-22.07h0Zm7.79,37.65c0,3.9-2.6,7.79-6.49,7.79h-7.79c-6.49,1.3-11.69,3.9-16.88,9.09l-10.39,18.18c-2.6,5.19-2.6,11.69,0,18.18l1.3,2.6c1.3,3.9,0,7.79-2.6,10.39l-12.98,7.79c-2.6,1.3-7.79,1.3-9.09-1.3l-1.3-3.9c-2.6-7.79-9.09-11.69-15.58-11.69h-18.18c-6.49,1.3-11.69,3.9-16.88,9.09l-1.3,2.6c-1.3,2.6-5.19,3.9-9.09,2.6l-12.98-6.49c-3.9-2.6-3.9-6.49-2.6-10.39l2.6-3.9c2.6-5.19,2.6-11.69,0-18.18l-10.39-16.88c-3.9-5.19-9.09-7.79-15.58-7.79h-5.19c-3.9,0-7.79-3.9-7.79-7.79v-15.58c0-3.9,2.6-7.79,6.49-7.79h7.79c6.49-1.3,11.69-3.9,16.88-9.09l10.39-18.18c2.6-6.49,2.6-12.98,0-19.48l-5.19-1.3c-1.3-3.9,0-7.79,2.6-10.39l12.98-7.79c2.6-1.3,6.49,0,9.09,2.6l1.3,2.6c3.9,5.19,10.39,9.09,16.88,9.09h20.77c6.49,0,12.98-3.9,16.88-9.09l1.3-2.6c1.3-2.6,5.19-3.9,9.09-2.6l12.98,7.79c3.9,2.6,3.9,6.49,2.6,10.39l-2.6,3.9c-2.6,5.19-2.6,11.69,0,18.18l10.39,18.18c3.9,5.19,10.39,9.09,16.88,9.09h3.9c3.9,0,7.79,2.6,7.79,6.49v15.58Zm-70.11-40.25c-9.09-5.19-18.18-6.49-28.56-2.6-9.09,2.6-18.18,9.09-23.37,16.88-5.19,9.09-5.19,19.48-2.6,28.56,2.6,9.09,9.09,16.88,18.18,22.07,5.19,2.6,11.69,5.19,18.18,3.9,12.98,0,25.97-6.49,32.46-18.18,9.09-16.88,2.6-40.25-14.28-50.64Zm0,44.15h0c-6.49,10.39-20.77,14.28-31.16,7.79-3.9-2.6-7.79-7.79-9.09-12.98-2.6-6.49-1.3-11.69,1.3-16.88,2.6-5.19,7.79-9.09,12.98-10.39h6.49c3.9,0,7.79,1.3,10.39,2.6,10.39,5.19,15.58,16.88,10.39,27.27,0,1.3-1.3,1.3-1.3,2.6Z"/>
		</g>
	</g>
</svg>