<svg width="24" height="26" viewBox="0 0 24 26" fill="none" xmlns="http://www.w3.org/2000/svg">
<path d="M15.8877 17.6055C15.866 17.5753 15.8374 17.5507 15.8043 17.5339C15.7711 17.5171 15.7344 17.5085 15.6973 17.5088H14.4023C14.2119 17.5088 14.1006 17.7256 14.2119 17.8809L16.374 20.8721C16.4678 21.001 16.6582 21.001 16.752 20.8721L20.0977 16.2432C20.209 16.0879 20.0977 15.8711 19.9072 15.8711H18.6094C18.5332 15.8711 18.4629 15.9062 18.4189 15.9678L16.5586 18.54L15.8877 17.6055ZM17.1562 6.96484V5.55859C17.1562 5.42969 17.0508 5.32422 16.9219 5.32422H5.67188C5.54297 5.32422 5.4375 5.42969 5.4375 5.55859V6.96484C5.4375 7.09375 5.54297 7.19922 5.67188 7.19922H16.9219C17.0508 7.19922 17.1562 7.09375 17.1562 6.96484ZM5.67188 9.54297C5.54297 9.54297 5.4375 9.64844 5.4375 9.77734V11.1836C5.4375 11.3125 5.54297 11.418 5.67188 11.418H11.0625C11.1914 11.418 11.2969 11.3125 11.2969 11.1836V9.77734C11.2969 9.64844 11.1914 9.54297 11.0625 9.54297H5.67188ZM11.0625 22.9609H3.09375V2.33594H19.5V11.0078C19.5 11.1367 19.6055 11.2422 19.7344 11.2422H21.375C21.5039 11.2422 21.6094 11.1367 21.6094 11.0078V1.16406C21.6094 0.645508 21.1904 0.226562 20.6719 0.226562H1.92188C1.40332 0.226562 0.984375 0.645508 0.984375 1.16406V24.1328C0.984375 24.6514 1.40332 25.0703 1.92188 25.0703H11.0625C11.1914 25.0703 11.2969 24.9648 11.2969 24.8359V23.1953C11.2969 23.0664 11.1914 22.9609 11.0625 22.9609ZM22.8574 13.5625L17.2324 11.6084C17.2061 11.5996 17.1826 11.5967 17.1562 11.5967C17.1299 11.5967 17.1035 11.5996 17.0801 11.6084L11.4551 13.5625C11.4091 13.5781 11.3692 13.6077 11.3408 13.6471C11.3125 13.6864 11.2971 13.7337 11.2969 13.7822V21.1387C11.2969 21.2119 11.3291 21.2793 11.3877 21.3232L17.0127 25.7236C17.0537 25.7559 17.1064 25.7734 17.1562 25.7734C17.2061 25.7734 17.2588 25.7559 17.2998 25.7236L22.9248 21.3232C22.9805 21.2793 23.0156 21.2119 23.0156 21.1387V13.7822C23.0156 13.6826 22.9512 13.5947 22.8574 13.5625ZM21.1992 20.374L17.1562 23.5352L13.1133 20.374V14.9043L17.1562 13.498L21.1992 14.9043V20.374Z" fill="#A3A3A3"/>
</svg>
