<svg width="20" height="20" viewBox="0 0 20 20" fill="none" xmlns="http://www.w3.org/2000/svg">
<g clip-path="url(#clip0_4645_7054)">
<path d="M8.12493 19.9999C7.92741 20.0009 7.73429 19.9416 7.57137 19.8299C7.40845 19.7182 7.2835 19.5595 7.21321 19.3749L5.65696 15.328C5.62544 15.2465 5.57722 15.1724 5.5154 15.1106C5.45358 15.0488 5.37952 15.0006 5.29797 14.969L1.24993 13.4116C1.06553 13.3408 0.906926 13.2158 0.79505 13.053C0.683173 12.8903 0.623283 12.6974 0.623283 12.4999C0.623283 12.3024 0.683173 12.1095 0.79505 11.9467C0.906926 11.784 1.06553 11.6589 1.24993 11.5882L5.2968 10.0319C5.37835 10.0004 5.45241 9.95219 5.51423 9.89037C5.57605 9.82855 5.62427 9.75449 5.65579 9.67294L7.21321 5.62489C7.28398 5.4405 7.409 5.28189 7.57177 5.17002C7.73454 5.05814 7.92741 4.99825 8.12493 4.99825C8.32244 4.99825 8.51531 5.05814 8.67808 5.17002C8.84085 5.28189 8.96587 5.4405 9.03664 5.62489L10.5929 9.67177C10.6244 9.75331 10.6726 9.82737 10.7345 9.88919C10.7963 9.95102 10.8703 9.99923 10.9519 10.0308L14.9753 11.5788C15.1672 11.6499 15.3325 11.7785 15.4488 11.9469C15.565 12.1154 15.6265 12.3155 15.6249 12.5202C15.6219 12.7143 15.5608 12.903 15.4494 13.0619C15.3379 13.2208 15.1814 13.3427 14.9999 13.4116L10.9531 14.9679C10.8715 14.9994 10.7974 15.0476 10.7356 15.1094C10.6738 15.1712 10.6256 15.2453 10.5941 15.3268L9.03664 19.3749C8.96635 19.5595 8.8414 19.7182 8.67848 19.8299C8.51557 19.9416 8.32245 20.0009 8.12493 19.9999ZM3.43743 6.87489C3.32163 6.87489 3.20855 6.8398 3.11309 6.77425C3.01762 6.7087 2.94426 6.61577 2.90266 6.5077L2.24407 4.7952C2.22979 4.75775 2.20776 4.72374 2.17942 4.6954C2.15108 4.66706 2.11707 4.64503 2.07961 4.63075L0.367114 3.97216C0.259059 3.93055 0.166144 3.85718 0.100611 3.76172C0.0350773 3.66626 0 3.55318 0 3.43739C0 3.3216 0.0350773 3.20853 0.100611 3.11307C0.166144 3.01761 0.259059 2.94424 0.367114 2.90263L2.07961 2.24403C2.11703 2.22969 2.15101 2.20764 2.17934 2.17931C2.20767 2.15097 2.22973 2.117 2.24407 2.07958L2.8968 0.382314C2.93361 0.282393 2.99696 0.194392 3.08003 0.127771C3.1631 0.0611486 3.26276 0.0184241 3.36829 0.00418884C3.49498 -0.0112134 3.6232 0.016122 3.7326 0.0818604C3.842 0.147599 3.92632 0.247978 3.97219 0.367079L4.63079 2.07958C4.64512 2.117 4.66718 2.15097 4.69551 2.17931C4.72384 2.20764 4.75782 2.22969 4.79524 2.24403L6.50774 2.90263C6.61579 2.94424 6.70871 3.01761 6.77424 3.11307C6.83978 3.20853 6.87485 3.3216 6.87485 3.43739C6.87485 3.55318 6.83978 3.66626 6.77424 3.76172C6.70871 3.85718 6.61579 3.93055 6.50774 3.97216L4.79524 4.63075C4.75779 4.64503 4.72377 4.66706 4.69543 4.6954C4.66709 4.72374 4.64506 4.75775 4.63079 4.7952L3.97219 6.5077C3.93059 6.61577 3.85723 6.7087 3.76177 6.77425C3.66631 6.8398 3.55323 6.87489 3.43743 6.87489ZM15.6249 9.99989C15.4986 9.99985 15.3753 9.96154 15.2711 9.88999C15.167 9.81844 15.087 9.71703 15.0417 9.59911L14.1495 7.27997C14.1338 7.2391 14.1097 7.20199 14.0788 7.17104C14.0478 7.14008 14.0107 7.11598 13.9698 7.10028L11.6507 6.2081C11.5329 6.1627 11.4316 6.08267 11.3601 5.97857C11.2887 5.87446 11.2504 5.75116 11.2504 5.62489C11.2504 5.49863 11.2887 5.37532 11.3601 5.27121C11.4316 5.16711 11.5329 5.08709 11.6507 5.04169L13.9698 4.1495C14.0107 4.13381 14.0478 4.1097 14.0788 4.07875C14.1097 4.04779 14.1338 4.01068 14.1495 3.96981L15.0351 1.66708C15.0755 1.55819 15.1447 1.46229 15.2353 1.38958C15.3259 1.31688 15.4345 1.27009 15.5495 1.25419C15.6878 1.23745 15.8277 1.26737 15.947 1.3392C16.0663 1.41103 16.1582 1.52066 16.2081 1.65067L17.1003 3.96981C17.116 4.01068 17.1401 4.04779 17.1711 4.07875C17.202 4.1097 17.2391 4.13381 17.28 4.1495L19.5991 5.04169C19.717 5.08709 19.8183 5.16711 19.8897 5.27121C19.9612 5.37532 19.9994 5.49863 19.9994 5.62489C19.9994 5.75116 19.9612 5.87446 19.8897 5.97857C19.8183 6.08267 19.717 6.1627 19.5991 6.2081L17.28 7.10028C17.2391 7.11598 17.202 7.14008 17.1711 7.17104C17.1401 7.20199 17.116 7.2391 17.1003 7.27997L16.2081 9.59911C16.1628 9.71703 16.0828 9.81844 15.9787 9.88999C15.8746 9.96154 15.7513 9.99985 15.6249 9.99989Z" fill="url(#paint0_linear_4645_7054)"/>
</g>
<defs>
<linearGradient id="paint0_linear_4645_7054" x1="9.99971" y1="0" x2="9.99971" y2="19.9999" gradientUnits="userSpaceOnUse">
<stop stop-color="#0601FF"/>
<stop offset="1" stop-color="#04FFFF"/>
</linearGradient>
<clipPath id="clip0_4645_7054">
<rect width="20" height="20" fill="white"/>
</clipPath>
</defs>
</svg>
