<svg width="20" height="20" viewBox="0 0 20 20" fill="none" xmlns="http://www.w3.org/2000/svg">
<path d="M6.86922 6.1166L1.55255 6.88744L1.45838 6.9066C1.31583 6.94445 1.18588 7.01944 1.08179 7.12394C0.977707 7.22843 0.903219 7.35868 0.865934 7.50137C0.82865 7.64407 0.829905 7.79411 0.869572 7.93616C0.909239 8.07822 0.985896 8.2072 1.09172 8.30994L4.94338 12.0591L4.03505 17.3549L4.02422 17.4466C4.01549 17.594 4.0461 17.7411 4.11292 17.8729C4.17974 18.0046 4.28037 18.1162 4.4045 18.1962C4.52862 18.2762 4.67179 18.3218 4.81934 18.3284C4.96689 18.3349 5.11352 18.3021 5.24422 18.2333L9.99922 15.7333L14.7434 18.2333L14.8267 18.2716C14.9643 18.3258 15.1138 18.3424 15.2598 18.3197C15.4059 18.2971 15.5434 18.236 15.658 18.1427C15.7727 18.0494 15.8605 17.9272 15.9124 17.7888C15.9643 17.6504 15.9785 17.5006 15.9534 17.3549L15.0442 12.0591L18.8975 8.3091L18.9625 8.23827C19.0554 8.12391 19.1163 7.98698 19.139 7.84143C19.1617 7.69588 19.1454 7.54692 19.0918 7.40971C19.0382 7.2725 18.9492 7.15196 18.8338 7.06036C18.7184 6.96876 18.5808 6.90938 18.435 6.88827L13.1184 6.1166L10.7417 1.29994C10.6729 1.16038 10.5665 1.04286 10.4344 0.960689C10.3023 0.878514 10.1498 0.834961 9.99422 0.834961C9.83864 0.834961 9.68616 0.878514 9.55406 0.960689C9.42195 1.04286 9.31549 1.16038 9.24672 1.29994L6.86922 6.1166Z" fill="black"/>
</svg>
